Sasha Greys Anatomy (2008) [BDMV]
 
http://www.adultfilmdatabase.com/video.cfm?videoid=76987 
http://www.sasamedia.com/product_info.php?products_id=6581 
http://www.movietyme.com/catalog/popup_image.php?pID=42122&osCsid=

Length: 114 
Bitrate: 21.2 Mbps 
Format: BDMV 

Starring: Sasha Grey, Mia Smiles, Faye Regan, Bobbi Eden, Jayme Langford, Jay Lassiter, Marco, James Courtney, Chris Cannon, Cheyne Collins, Jerry 

Information: 
Sasha Grey's Anatomy is a problem of medical and mental health issues sex festival will take place in downtown San Fernando Valley and sexual dysfunction in which the characters tend to the kinky eccentricities of both their patients and others. 

==================================== 
Format: BDAV 
Format / Info: Blu-ray video 
File size: 16.9 GiB 
Duration: 1h 54mn 
Total bit rate: 21.2 Mbps 
Maximum total bit rate: 48.0 Mbps 

Video 
ID: 4113 (0x1011) 
Menu ID: 1 (0x1) 
Format: AVC 
Format / Info: Advanced Video Codec 
Format profile: High@L4.1 
Format settings, CABAC: Yes 
Format settings, rethinking: 4 photos 
Codec ID: 27 
Duration: 1h 54mn 
Little change mode: variable 
Recording Speed: 20.1 Mbps 
Maximum speed: 30.0 Mbps 
Width: 1920 pixels 
Height: 1080 pixels 
Show 16:9 aspect ratio 
Frame rate: 29.970 fps 
Standard: NTSC 
Color Space: YUV 
subsampling Chroma: 4:2:0 
Bit depth: 8 bits 
Scan type: MBAFF 
Bits / (Pixel * Frame): 0.324 
Stream size: 16.1 MiB (95%) 
Primary Color: 5 BT.709, BT.1361, IEC 61966-2-4, SMPTE RP177 
The transfer of properties: 5 BT.709, BT.1361 
Coefficients matrix: 5 BT.709, BT.1361, IEC 61966-2-4 709, SMPTE RP177 

Audio 
ID: 4352 (0x1100) 
Menu ID: 1 (0x1) 
Format: AC-3 
Format / Info: Audio Coding 3 
extension as follows: CM (complete core) 
Codec ID: 129 
Duration: 1h 54mn 
Bit rate mode: Constant 
Bitrate: 192 Kbps 
Channel (s): 2 channels 
Channel positions: Front: LR 
Sampling frequency: 48.0 kHz 
Bit depth: 16 bits 
Stream size: 157 MiB (1%) 
=========================================
